<svg width="182" height="50" viewBox="0 0 182 50" fill="none" xmlns="http://www.w3.org/2000/svg">
<path d="M0 7.99999C0 3.58171 3.58172 0 8 0H174C178.418 0 182 3.58172 182 8V41.3333C182 45.7516 178.418 49.3333 174 49.3333H8C3.58172 49.3333 0 45.7516 0 41.3333V7.99999Z" fill="white"/>
<path d="M23.5556 33.1528H13.4444C12.7464 33.1528 12.1806 32.5869 12.1806 31.8889V17.4444C12.1806 16.7464 12.7464 16.1806 13.4444 16.1806H19.1704L24.5649 19.5521C24.7232 19.6511 24.8194 19.8246 24.8194 20.0114V31.8889C24.8194 32.5869 24.2536 33.1528 23.5556 33.1528Z" fill="white" stroke="#BABEC9" stroke-width="0.361111"/>
<mask id="path-4-inside-1_2_524" fill="white">
<path fill-rule="evenodd" clip-rule="evenodd" d="M25 20.2727H19.9444C19.5456 20.2727 19.2222 19.9493 19.2222 19.5505V15.9697C19.2838 15.9881 19.3429 16.0147 19.3979 16.0491L24.6605 19.3383C24.8717 19.4703 25 19.7017 25 19.9507V20.2727Z"/>
</mask>
<path fill-rule="evenodd" clip-rule="evenodd" d="M25 20.2727H19.9444C19.5456 20.2727 19.2222 19.9493 19.2222 19.5505V15.9697C19.2838 15.9881 19.3429 16.0147 19.3979 16.0491L24.6605 19.3383C24.8717 19.4703 25 19.7017 25 19.9507V20.2727Z" fill="#BABEC9"/>
<path d="M25 20.2727V20.6338H25.3611V20.2727H25ZM19.2222 15.9697L19.3258 15.6237L18.8611 15.4846V15.9697H19.2222ZM19.3979 16.0491L19.5892 15.7429L19.5892 15.7429L19.3979 16.0491ZM24.6605 19.3383L24.4692 19.6445L24.4692 19.6445L24.6605 19.3383ZM25 19.9116H19.9444V20.6338H25V19.9116ZM19.9444 19.9116C19.745 19.9116 19.5833 19.7499 19.5833 19.5505H18.8611C18.8611 20.1488 19.3461 20.6338 19.9444 20.6338V19.9116ZM19.5833 19.5505V15.9697H18.8611V19.5505H19.5833ZM19.1186 16.3156C19.1494 16.3248 19.179 16.3382 19.2065 16.3553L19.5892 15.7429C19.5067 15.6913 19.4181 15.6514 19.3258 15.6237L19.1186 16.3156ZM19.2065 16.3553L24.4692 19.6445L24.8519 19.0321L19.5892 15.7429L19.2065 16.3553ZM24.4692 19.6445C24.5747 19.7105 24.6389 19.8262 24.6389 19.9507H25.3611C25.3611 19.5772 25.1687 19.23 24.8519 19.0321L24.4692 19.6445ZM24.6389 19.9507V20.2727H25.3611V19.9507H24.6389Z" fill="#BABEC9" mask="url(#path-4-inside-1_2_524)"/>
<path d="M44.5556 33.1528H34.4444C33.7464 33.1528 33.1806 32.5869 33.1806 31.8889V17.4444C33.1806 16.7464 33.7464 16.1806 34.4444 16.1806H40.1704L45.5649 19.5521C45.7232 19.6511 45.8194 19.8246 45.8194 20.0114V31.8889C45.8194 32.5869 45.2536 33.1528 44.5556 33.1528Z" fill="white" stroke="#BABEC9" stroke-width="0.361111"/>
<mask id="path-7-inside-2_2_524" fill="white">
<path fill-rule="evenodd" clip-rule="evenodd" d="M46 20.2727H40.9444C40.5456 20.2727 40.2222 19.9493 40.2222 19.5505V15.9697C40.2838 15.9881 40.3429 16.0147 40.3979 16.0491L45.6605 19.3383C45.8717 19.4703 46 19.7017 46 19.9507V20.2727Z"/>
</mask>
<path fill-rule="evenodd" clip-rule="evenodd" d="M46 20.2727H40.9444C40.5456 20.2727 40.2222 19.9493 40.2222 19.5505V15.9697C40.2838 15.9881 40.3429 16.0147 40.3979 16.0491L45.6605 19.3383C45.8717 19.4703 46 19.7017 46 19.9507V20.2727Z" fill="#BABEC9"/>
<path d="M46 20.2727V20.6338H46.3611V20.2727H46ZM40.2222 15.9697L40.3258 15.6237L39.8611 15.4846V15.9697H40.2222ZM40.3979 16.0491L40.5892 15.7429L40.5892 15.7429L40.3979 16.0491ZM45.6605 19.3383L45.4692 19.6445L45.4692 19.6445L45.6605 19.3383ZM46 19.9116H40.9444V20.6338H46V19.9116ZM40.9444 19.9116C40.745 19.9116 40.5833 19.7499 40.5833 19.5505H39.8611C39.8611 20.1488 40.3461 20.6338 40.9444 20.6338V19.9116ZM40.5833 19.5505V15.9697H39.8611V19.5505H40.5833ZM40.1186 16.3156C40.1494 16.3248 40.179 16.3382 40.2065 16.3553L40.5892 15.7429C40.5067 15.6913 40.4181 15.6514 40.3258 15.6237L40.1186 16.3156ZM40.2065 16.3553L45.4692 19.6445L45.8519 19.0321L40.5892 15.7429L40.2065 16.3553ZM45.4692 19.6445C45.5747 19.7105 45.6389 19.8262 45.6389 19.9507H46.3611C46.3611 19.5772 46.1687 19.23 45.8519 19.0321L45.4692 19.6445ZM45.6389 19.9507V20.2727H46.3611V19.9507H45.6389Z" fill="#BABEC9" mask="url(#path-7-inside-2_2_524)"/>
<path d="M69.5556 33.1528H59.4444C58.7464 33.1528 58.1806 32.5869 58.1806 31.8889V17.4444C58.1806 16.7464 58.7464 16.1806 59.4444 16.1806H65.1704L70.5649 19.5521C70.7232 19.6511 70.8194 19.8246 70.8194 20.0114V31.8889C70.8194 32.5869 70.2536 33.1528 69.5556 33.1528Z" fill="white" stroke="#BABEC9" stroke-width="0.361111"/>
<mask id="path-11-inside-3_2_524" fill="white">
<path fill-rule="evenodd" clip-rule="evenodd" d="M71 20.2727H65.9444C65.5456 20.2727 65.2222 19.9493 65.2222 19.5505V15.9697C65.2838 15.9881 65.3429 16.0147 65.3979 16.0491L70.6605 19.3383C70.8717 19.4703 71 19.7017 71 19.9507V20.2727Z"/>
</mask>
<path fill-rule="evenodd" clip-rule="evenodd" d="M71 20.2727H65.9444C65.5456 20.2727 65.2222 19.9493 65.2222 19.5505V15.9697C65.2838 15.9881 65.3429 16.0147 65.3979 16.0491L70.6605 19.3383C70.8717 19.4703 71 19.7017 71 19.9507V20.2727Z" fill="#BABEC9"/>
<path d="M71 20.2727V20.6338H71.3611V20.2727H71ZM65.2222 15.9697L65.3258 15.6237L64.8611 15.4846V15.9697H65.2222ZM65.3979 16.0491L65.5892 15.7429L65.5892 15.7429L65.3979 16.0491ZM70.6605 19.3383L70.4692 19.6445L70.4692 19.6445L70.6605 19.3383ZM71 19.9116H65.9444V20.6338H71V19.9116ZM65.9444 19.9116C65.745 19.9116 65.5833 19.7499 65.5833 19.5505H64.8611C64.8611 20.1488 65.3461 20.6338 65.9444 20.6338V19.9116ZM65.5833 19.5505V15.9697H64.8611V19.5505H65.5833ZM65.1186 16.3156C65.1494 16.3248 65.179 16.3382 65.2065 16.3553L65.5892 15.7429C65.5067 15.6913 65.4181 15.6514 65.3258 15.6237L65.1186 16.3156ZM65.2065 16.3553L70.4692 19.6445L70.8519 19.0321L65.5892 15.7429L65.2065 16.3553ZM70.4692 19.6445C70.5747 19.7105 70.6389 19.8262 70.6389 19.9507H71.3611C71.3611 19.5772 71.1687 19.23 70.8519 19.0321L70.4692 19.6445ZM70.6389 19.9507V20.2727H71.3611V19.9507H70.6389Z" fill="#BABEC9" mask="url(#path-11-inside-3_2_524)"/>
<path d="M90.5556 33.1528H80.4444C79.7464 33.1528 79.1806 32.5869 79.1806 31.8889V17.4444C79.1806 16.7464 79.7464 16.1806 80.4444 16.1806H86.1704L91.5649 19.5521C91.7232 19.6511 91.8194 19.8246 91.8194 20.0114V31.8889C91.8194 32.5869 91.2536 33.1528 90.5556 33.1528Z" fill="white" stroke="#BABEC9" stroke-width="0.361111"/>
<mask id="path-14-inside-4_2_524" fill="white">
<path fill-rule="evenodd" clip-rule="evenodd" d="M92 20.2727H86.9444C86.5456 20.2727 86.2222 19.9493 86.2222 19.5505V15.9697C86.2838 15.9881 86.3429 16.0147 86.3979 16.0491L91.6605 19.3383C91.8717 19.4703 92 19.7017 92 19.9507V20.2727Z"/>
</mask>
<path fill-rule="evenodd" clip-rule="evenodd" d="M92 20.2727H86.9444C86.5456 20.2727 86.2222 19.9493 86.2222 19.5505V15.9697C86.2838 15.9881 86.3429 16.0147 86.3979 16.0491L91.6605 19.3383C91.8717 19.4703 92 19.7017 92 19.9507V20.2727Z" fill="#BABEC9"/>
<path d="M92 20.2727V20.6338H92.3611V20.2727H92ZM86.2222 15.9697L86.3258 15.6237L85.8611 15.4846V15.9697H86.2222ZM86.3979 16.0491L86.5892 15.7429L86.5892 15.7429L86.3979 16.0491ZM91.6605 19.3383L91.4692 19.6445L91.4692 19.6445L91.6605 19.3383ZM92 19.9116H86.9444V20.6338H92V19.9116ZM86.9444 19.9116C86.745 19.9116 86.5833 19.7499 86.5833 19.5505H85.8611C85.8611 20.1488 86.3461 20.6338 86.9444 20.6338V19.9116ZM86.5833 19.5505V15.9697H85.8611V19.5505H86.5833ZM86.1186 16.3156C86.1494 16.3248 86.179 16.3382 86.2065 16.3553L86.5892 15.7429C86.5067 15.6913 86.4181 15.6514 86.3258 15.6237L86.1186 16.3156ZM86.2065 16.3553L91.4692 19.6445L91.8519 19.0321L86.5892 15.7429L86.2065 16.3553ZM91.4692 19.6445C91.5747 19.7105 91.6389 19.8262 91.6389 19.9507H92.3611C92.3611 19.5772 92.1687 19.23 91.8519 19.0321L91.4692 19.6445ZM91.6389 19.9507V20.2727H92.3611V19.9507H91.6389Z" fill="#BABEC9" mask="url(#path-14-inside-4_2_524)"/>
<rect x="54.5" y="12.5" width="41" height="24.3333" rx="7.5" stroke="#AA9FFF"/>
<path d="M105 27.4354C105 27.6411 105.231 27.7439 105.366 27.5987L107.937 24.83C108.021 24.7396 108.021 24.5935 107.937 24.5035L105.366 21.7344C105.231 21.5895 105 21.6924 105 21.8977L105 27.4354Z" fill="#AA9FFF"/>
<rect width="0" height="9" transform="translate(105 24.6667) rotate(90)" fill="#AA9FFF"/>
<path d="M105 24.6667L96 24.6667" stroke="#AA9FFF"/>
<circle cx="123.885" cy="23.8852" r="11.4754" fill="white" stroke="#F2EDFC" stroke-width="0.819672"/>
<g clip-path="url(#clip0_2_524)">
<g clip-path="url(#clip1_2_524)">
<path fill-rule="evenodd" clip-rule="evenodd" d="M126.79 22.2994C126.694 22.2624 126.598 22.2281 126.5 22.1966C126.516 22.1228 126.531 22.0486 126.545 21.9741C126.765 20.7754 126.621 19.8097 126.13 19.4918C125.66 19.1869 124.891 19.5048 124.114 20.2647C124.037 20.3397 123.963 20.4169 123.889 20.4962C123.84 20.4435 123.791 20.3918 123.74 20.3411C122.926 19.5286 122.11 19.1862 121.62 19.505C121.15 19.8107 121.011 20.7186 121.208 21.8547C121.228 21.9672 121.25 22.0791 121.275 22.1903C121.159 22.2272 121.048 22.2665 120.941 22.3083C119.987 22.6823 119.377 23.2686 119.377 23.8767C119.377 24.5047 120.031 25.1347 121.026 25.5166C121.106 25.5475 121.188 25.576 121.27 25.6023C121.243 25.7221 121.219 25.8428 121.199 25.9641C121.01 27.0804 121.157 27.9668 121.626 28.2706C122.11 28.5843 122.923 28.2619 123.714 27.4846C123.776 27.4232 123.839 27.358 123.902 27.2897C123.981 27.3756 124.062 27.4589 124.146 27.5397C124.912 28.2808 125.669 28.5801 126.137 28.2754C126.621 27.9608 126.778 27.0086 126.574 25.85C126.558 25.7616 126.54 25.6712 126.52 25.5792C126.577 25.5602 126.633 25.5407 126.687 25.5203C127.721 25.1354 128.393 24.5131 128.393 23.8767C128.393 23.2664 127.764 22.6762 126.79 22.2994ZM126.566 25.1094C126.517 25.1277 126.466 25.1454 126.415 25.1626C126.301 24.7566 126.147 24.3248 125.958 23.8788C126.138 23.4433 126.286 23.0171 126.397 22.6137C126.489 22.6437 126.579 22.6754 126.665 22.7088C127.499 23.0316 128.008 23.5089 128.008 23.8767C128.008 24.2684 127.459 24.777 126.566 25.1094H126.566ZM126.196 25.9341C126.286 26.4464 126.299 26.9096 126.239 27.2716C126.185 27.597 126.077 27.8139 125.944 27.9007C125.66 28.0856 125.052 27.8453 124.397 27.2115C124.322 27.1388 124.246 27.0612 124.17 26.9792C124.424 26.6668 124.678 26.3037 124.926 25.9005C125.362 25.8571 125.774 25.786 126.147 25.689C126.165 25.7724 126.182 25.8542 126.196 25.9341ZM122.451 27.8688C122.173 27.979 121.952 27.9821 121.819 27.8955C121.534 27.7112 121.416 26.9994 121.577 26.0448C121.596 25.932 121.618 25.8198 121.643 25.7083C122.012 25.8002 122.421 25.8662 122.858 25.906C123.108 26.3006 123.369 26.6632 123.632 26.9808C123.576 27.0417 123.519 27.1009 123.46 27.1586C123.11 27.5023 122.76 27.7461 122.451 27.8688H122.451ZM121.15 25.107C120.711 24.9381 120.348 24.7186 120.099 24.4791C119.875 24.2638 119.762 24.0501 119.762 23.8767C119.762 23.5077 120.252 23.037 121.068 22.7171C121.171 22.6771 121.274 22.6405 121.378 22.6073C121.491 23.0198 121.639 23.4511 121.818 23.8872C121.637 24.3298 121.487 24.7679 121.373 25.1853C121.298 25.1612 121.224 25.1351 121.15 25.107ZM121.586 21.7715C121.417 20.7981 121.529 20.0639 121.813 19.8797C122.114 19.6834 122.781 19.9633 123.484 20.6648C123.529 20.7097 123.574 20.7567 123.62 20.8052C123.358 21.1214 123.099 21.4813 122.851 21.8735C122.427 21.9177 122.021 21.9887 121.648 22.0837C121.625 21.9802 121.605 21.8761 121.586 21.7715V21.7715ZM125.476 22.8509C125.387 22.6798 125.296 22.5108 125.201 22.3441C125.489 22.3849 125.765 22.4392 126.024 22.5056C125.946 22.7855 125.849 23.0782 125.735 23.3782C125.652 23.2005 125.565 23.0247 125.476 22.8509ZM123.89 21.1146C124.067 21.3309 124.245 21.5725 124.42 21.8345C124.065 21.8157 123.709 21.8156 123.354 21.8343C123.53 21.5746 123.709 21.3334 123.89 21.1146ZM122.293 22.8539C122.205 23.0263 122.12 23.201 122.039 23.3779C121.927 23.0789 121.831 22.7849 121.752 22.501C122.01 22.4363 122.284 22.3834 122.57 22.3433C122.474 22.511 122.382 22.6813 122.293 22.8539ZM122.578 25.4409C122.283 25.4039 122.004 25.3537 121.747 25.2908C121.827 25.0018 121.925 24.7015 122.039 24.3961C122.121 24.5731 122.206 24.748 122.295 24.9205C122.386 25.0965 122.48 25.27 122.578 25.4409ZM123.9 26.6693C123.718 26.4479 123.536 26.203 123.358 25.9396C123.53 25.9472 123.706 25.9511 123.885 25.9511C124.069 25.9511 124.251 25.9465 124.43 25.9375C124.254 26.2057 124.077 26.4509 123.9 26.6693ZM125.739 24.3805C125.859 24.6893 125.961 24.988 126.041 25.272C125.78 25.3391 125.498 25.3931 125.2 25.4332C125.296 25.2633 125.388 25.0914 125.477 24.9175C125.568 24.7407 125.655 24.5617 125.739 24.3805ZM125.143 24.7012C125.007 24.9679 124.863 25.2295 124.711 25.4856C124.443 25.5071 124.167 25.5182 123.885 25.5182C123.605 25.5182 123.332 25.5084 123.069 25.4892C122.913 25.2337 122.766 24.9716 122.628 24.7036C122.491 24.437 122.363 24.1646 122.244 23.8871C122.362 23.6094 122.49 23.3369 122.627 23.0701V23.0702C122.764 22.8033 122.91 22.5423 123.064 22.2879C123.332 22.2651 123.607 22.2532 123.885 22.2532C124.164 22.2532 124.44 22.2652 124.708 22.2882C124.861 22.5422 125.006 22.8023 125.142 23.0678C125.28 23.334 125.409 23.6052 125.531 23.8809C125.41 24.1594 125.281 24.433 125.143 24.7012H125.143ZM125.938 19.8668C126.24 20.0625 126.357 20.8517 126.168 21.8867C126.155 21.9541 126.142 22.0213 126.127 22.0882C125.753 21.9912 125.347 21.919 124.922 21.8741C124.674 21.4776 124.417 21.1171 124.159 20.805C124.227 20.7318 124.296 20.6606 124.367 20.5912C125.032 19.9401 125.655 19.683 125.938 19.8668ZM124.751 23.8101C124.751 23.3104 124.39 22.9052 123.946 22.9052C123.501 22.9052 123.14 23.3104 123.14 23.8101C123.14 24.3099 123.501 24.7151 123.946 24.7151C124.39 24.7151 124.751 24.3099 124.751 23.8101Z" fill="#00D8FF"/>
</g>
</g>
<path d="M120.362 15.6885C118.271 16.603 116.593 18.288 115.689 20.3846" stroke="#F2EDFC" stroke-width="0.819672" stroke-linecap="round"/>
<path d="M120.443 31.2623C120.443 29.9042 121.544 28.8033 122.902 28.8033H134.541C135.899 28.8033 137 29.9042 137 31.2623V34.623C137 35.981 135.899 37.082 134.541 37.082H122.902C121.544 37.082 120.443 35.981 120.443 34.623V31.2623Z" fill="#F2EDFC"/>
<path d="M126.541 34.4426V31.5369H125.975V33.459L124.766 31.5369H124.061V34.4426H124.627V32.3812L125.947 34.4426H126.541ZM129.043 34.4426V33.9098H127.789V33.2377H128.924V32.7336H127.789V32.0697H129.043V31.5369H127.223V34.4426H129.043ZM132.338 33.5451L131.691 31.5369H131.105L130.461 33.5369L129.929 31.5369H129.33L130.138 34.4426H130.728L131.392 32.373L132.056 34.4426H132.638L133.441 31.5369H132.863L132.338 33.5451Z" fill="#707279"/>
<circle cx="156.885" cy="23.8852" r="11.4754" fill="white" stroke="#F2EDFC" stroke-width="0.819672"/>
<g clip-path="url(#clip2_2_524)">
<g clip-path="url(#clip3_2_524)">
<path d="M160.676 21.3269L157.467 19.4635C157.264 19.3482 157.001 19.3482 156.797 19.4635L153.553 21.3269C153.345 21.447 153.197 21.6729 153.197 21.9144V25.6362C153.197 25.8778 153.348 26.1037 153.557 26.2245L154.414 26.7112C154.824 26.9129 154.968 26.9129 155.155 26.9129C155.761 26.9129 156.108 26.5462 156.108 25.9066V22.2322C156.108 22.1803 156.081 22.1031 156.03 22.1031H155.621C155.569 22.1031 155.453 22.1803 155.453 22.2321V25.9065C155.453 26.19 155.196 26.4722 154.717 26.2325L153.832 25.7222C153.801 25.7054 153.779 25.6717 153.779 25.6362V21.9144C153.779 21.8793 153.819 21.8441 153.85 21.8261L157.083 19.9659C157.114 19.9488 157.158 19.9488 157.188 19.9659L160.382 21.8257C160.412 21.8441 160.401 21.8782 160.401 21.9144V25.6362C160.401 25.6717 160.415 25.7063 160.384 25.7234L157.176 27.5847C157.149 27.6012 157.114 27.6012 157.084 27.5847L156.261 27.0935C156.237 27.0791 156.207 27.074 156.183 27.0873C155.954 27.217 155.912 27.2343 155.697 27.3087C155.645 27.3271 155.567 27.3591 155.727 27.4491L156.804 28.0862C156.907 28.1456 157.024 28.1768 157.142 28.1769C157.262 28.1769 157.379 28.1459 157.482 28.0862L160.676 26.2245C160.885 26.1028 160.984 25.8778 160.984 25.6362V21.9144C160.984 21.6729 160.885 21.4476 160.676 21.3269ZM158.139 25.0465C157.285 25.0465 157.098 24.811 157.035 24.3867C157.028 24.341 156.989 24.2863 156.942 24.2863H156.525C156.474 24.2863 156.432 24.3489 156.432 24.4003C156.432 24.9436 156.728 25.602 158.139 25.602C159.161 25.602 159.746 25.205 159.746 24.5024C159.746 23.8058 159.276 23.623 158.285 23.4919C157.283 23.3595 157.182 23.2926 157.182 23.058C157.182 22.8645 157.268 22.6065 158.009 22.6065C158.672 22.6065 158.916 22.7488 159.017 23.1954C159.025 23.2374 159.064 23.2675 159.107 23.2675H159.526C159.551 23.2675 159.576 23.2571 159.594 23.2387C159.612 23.2189 159.621 23.1941 159.618 23.1674C159.554 22.3983 159.043 22.0399 158.009 22.0399C157.09 22.0399 156.542 22.4281 156.542 23.0788C156.542 23.7846 157.087 23.9796 157.97 24.0668C159.025 24.1703 159.107 24.3246 159.107 24.5322C159.107 24.8928 158.818 25.0465 158.139 25.0465Z" fill="#83CD29"/>
</g>
</g>
<path d="M153.362 15.6885C151.271 16.603 149.593 18.288 148.689 20.3846" stroke="#F2EDFC" stroke-width="0.819672" stroke-linecap="round"/>
<path d="M153.443 31.2623C153.443 29.9042 154.544 28.8033 155.902 28.8033H167.541C168.899 28.8033 170 29.9042 170 31.2623V34.623C170 35.981 168.899 37.082 167.541 37.082H155.902C154.544 37.082 153.443 35.981 153.443 34.623V31.2623Z" fill="#F2EDFC"/>
<path d="M159.541 34.4426V31.5369H158.975V33.459L157.766 31.5369H157.061V34.4426H157.627V32.3812L158.947 34.4426H159.541ZM162.043 34.4426V33.9098H160.789V33.2377H161.924V32.7336H160.789V32.0697H162.043V31.5369H160.223V34.4426H162.043ZM165.338 33.5451L164.691 31.5369H164.105L163.461 33.5369L162.929 31.5369H162.33L163.138 34.4426H163.728L164.392 32.373L165.056 34.4426H165.638L166.441 31.5369H165.863L165.338 33.5451Z" fill="#707279"/>
<path d="M8 1H174V-1H8V1ZM181 8V41.3333H183V8H181ZM174 48.3333H8V50.3333H174V48.3333ZM1 41.3333V7.99999H-1V41.3333H1ZM8 48.3333C4.13401 48.3333 1 45.1993 1 41.3333H-1C-1 46.3039 3.02944 50.3333 8 50.3333V48.3333ZM181 41.3333C181 45.1993 177.866 48.3333 174 48.3333V50.3333C178.971 50.3333 183 46.3039 183 41.3333H181ZM174 1C177.866 1 181 4.13401 181 8H183C183 3.02944 178.971 -1 174 -1V1ZM8 -1C3.02944 -1 -1 3.02943 -1 7.99999H1C1 4.134 4.13401 1 8 1V-1Z" fill="#E5DFFF"/>
<defs>
<clipPath id="clip0_2_524">
<rect width="9.83607" height="9.83607" fill="white" transform="translate(118.967 18.9672)"/>
</clipPath>
<clipPath id="clip1_2_524">
<rect width="9.83607" height="9.83607" fill="white" transform="translate(118.967 18.9672)"/>
</clipPath>
<clipPath id="clip2_2_524">
<rect width="9.83607" height="9.83607" fill="white" transform="translate(151.967 18.9672)"/>
</clipPath>
<clipPath id="clip3_2_524">
<rect width="9.83607" height="9.83607" fill="white" transform="translate(151.967 18.9672)"/>
</clipPath>
</defs>
</svg>
