<svg width="148" height="49" viewBox="0 0 148 49" fill="none" xmlns="http://www.w3.org/2000/svg">
<path d="M0 8C0 3.58172 3.58172 0 8 0H140C144.418 0 148 3.58172 148 8V41C148 45.4183 144.418 49 140 49H8C3.58173 49 0 45.4183 0 41V8Z" fill="white"/>
<circle cx="23.8852" cy="23.8852" r="11.4754" fill="white" stroke="#F2EDFC" stroke-width="0.819672"/>
<g clip-path="url(#clip0_2_616)">
<g clip-path="url(#clip1_2_616)">
<path fill-rule="evenodd" clip-rule="evenodd" d="M26.7904 22.2994C26.6944 22.2624 26.5976 22.2281 26.5001 22.1966C26.5163 22.1228 26.5312 22.0486 26.545 21.9741C26.7647 20.7754 26.621 19.8097 26.1304 19.4918C25.6601 19.1869 24.8908 19.5048 24.1139 20.2647C24.0374 20.3397 23.9625 20.4169 23.8894 20.4962C23.8405 20.4435 23.7907 20.3918 23.74 20.3412C22.9258 19.5286 22.1097 19.1862 21.6196 19.505C21.1497 19.8108 21.0105 20.7187 21.2083 21.8547C21.228 21.9672 21.2502 22.0791 21.275 22.1903C21.1595 22.2272 21.048 22.2665 20.9413 22.3083C19.9867 22.6823 19.377 23.2686 19.377 23.8767C19.377 24.5048 20.0315 25.1347 21.0258 25.5166C21.1064 25.5475 21.1877 25.576 21.2696 25.6023C21.243 25.7221 21.2194 25.8428 21.1988 25.9641C21.0102 27.0804 21.1575 27.9668 21.6261 28.2706C22.1102 28.5844 22.9226 28.2619 23.7137 27.4846C23.7763 27.4232 23.839 27.358 23.9019 27.2897C23.981 27.3756 24.0623 27.4589 24.1456 27.5397C24.9119 28.2808 25.6687 28.5801 26.137 28.2754C26.6206 27.9608 26.7778 27.0086 26.5737 25.8501C26.5581 25.7616 26.54 25.6712 26.5196 25.5792C26.5767 25.5602 26.6327 25.5407 26.6873 25.5203C27.721 25.1354 28.3934 24.5131 28.3934 23.8767C28.3934 23.2664 27.7642 22.6762 26.7904 22.2994ZM26.5661 25.1094C26.5169 25.1277 26.4663 25.1455 26.4147 25.1626C26.3006 24.7566 26.1466 24.3248 25.9581 23.8788C26.138 23.4433 26.286 23.0171 26.397 22.6137C26.4892 22.6438 26.5787 22.6754 26.665 22.7088C27.4994 23.0316 28.0083 23.5089 28.0083 23.8767C28.0083 24.2684 27.4586 24.777 26.5662 25.1094H26.5661ZM26.1958 25.9341C26.2861 26.4464 26.2989 26.9096 26.2392 27.2716C26.1855 27.597 26.0775 27.8139 25.944 27.9007C25.6598 28.0856 25.0521 27.8453 24.3968 27.2115C24.3217 27.1388 24.246 27.0612 24.1701 26.9792C24.4242 26.6668 24.6781 26.3037 24.9259 25.9005C25.3618 25.8571 25.7736 25.786 26.147 25.689C26.1654 25.7724 26.1818 25.8542 26.1958 25.9341ZM22.4509 27.8688C22.1733 27.979 21.9522 27.9821 21.8186 27.8955C21.5341 27.7112 21.416 26.9994 21.5772 26.0448C21.5964 25.932 21.6183 25.8198 21.643 25.7084C22.0123 25.8002 22.4212 25.8662 22.8581 25.9061C23.1075 26.3006 23.3688 26.6633 23.6321 26.9808C23.5761 27.0417 23.5188 27.101 23.4603 27.1586C23.1104 27.5023 22.7599 27.7461 22.451 27.8688H22.4509ZM21.1504 25.107C20.7107 24.9381 20.3476 24.7186 20.0987 24.4791C19.8751 24.2638 19.7622 24.0501 19.7622 23.8767C19.7622 23.5077 20.2517 23.037 21.0681 22.7171C21.1705 22.6771 21.274 22.6405 21.3784 22.6073C21.4912 23.0198 21.6392 23.4511 21.8179 23.8872C21.6369 24.3298 21.4868 24.768 21.3729 25.1853C21.2982 25.1612 21.224 25.1351 21.1504 25.107ZM21.5863 21.7715C21.4169 20.7982 21.5294 20.0639 21.8126 19.8797C22.1143 19.6834 22.7812 19.9633 23.4843 20.6649C23.5292 20.7097 23.5743 20.7567 23.6195 20.8052C23.3576 21.1214 23.0987 21.4813 22.8515 21.8736C22.4274 21.9177 22.0215 21.9887 21.6483 22.0837C21.6253 21.9802 21.6047 21.8761 21.5863 21.7715V21.7715ZM25.4756 22.8509C25.3874 22.6798 25.296 22.5108 25.2014 22.3441C25.4891 22.3849 25.7647 22.4392 26.0235 22.5056C25.9458 22.7855 25.849 23.0782 25.735 23.3783C25.6516 23.2006 25.5652 23.0247 25.4756 22.8509ZM23.8896 21.1146C24.0672 21.3309 24.2451 21.5725 24.4201 21.8345C24.0651 21.8157 23.7095 21.8156 23.3545 21.8343C23.5297 21.5746 23.7091 21.3334 23.8896 21.1146ZM22.2933 22.8539C22.2049 23.0263 22.12 23.2011 22.0388 23.3779C21.9267 23.0789 21.8307 22.7849 21.7523 22.501C22.0096 22.4363 22.2839 22.3834 22.5698 22.3433C22.4741 22.511 22.3819 22.6813 22.2933 22.8539ZM22.578 25.4409C22.2827 25.4039 22.0042 25.3537 21.747 25.2908C21.8266 25.0019 21.9247 24.7015 22.0393 24.3961C22.1208 24.5731 22.206 24.748 22.2949 24.9205C22.3856 25.0965 22.4799 25.27 22.578 25.4409ZM23.9002 26.6693C23.7176 26.4479 23.5356 26.203 23.3577 25.9396C23.5303 25.9472 23.7064 25.9511 23.8852 25.9511C24.069 25.9511 24.2507 25.9465 24.4295 25.9375C24.2539 26.2057 24.0767 26.4509 23.9002 26.6693ZM25.7386 24.3806C25.8591 24.6893 25.9607 24.988 26.0414 25.272C25.78 25.3391 25.4977 25.3931 25.2003 25.4332C25.2956 25.2634 25.3879 25.0914 25.4771 24.9175C25.5678 24.7407 25.655 24.5617 25.7386 24.3806ZM25.1435 24.7012C25.0069 24.9679 24.8626 25.2295 24.7109 25.4856C24.4434 25.5071 24.167 25.5182 23.8852 25.5182C23.6047 25.5182 23.3317 25.5084 23.0689 25.4892C22.9133 25.2337 22.7663 24.9716 22.6283 24.7036C22.4909 24.437 22.3626 24.1646 22.2436 23.8871C22.3623 23.6094 22.4902 23.3369 22.6271 23.0701V23.0702C22.764 22.8033 22.9098 22.5424 23.0643 22.2879C23.3324 22.2651 23.6074 22.2532 23.8853 22.2532C24.1644 22.2532 24.4397 22.2652 24.7078 22.2882C24.8607 22.5422 25.0056 22.8023 25.1422 23.0678C25.2796 23.334 25.4092 23.6052 25.5309 23.8809C25.4105 24.1594 25.2813 24.433 25.1435 24.7012H25.1435ZM25.9381 19.8668C26.24 20.0625 26.3574 20.8517 26.1677 21.8867C26.1553 21.9542 26.1418 22.0213 26.1272 22.0882C25.7531 21.9912 25.3469 21.919 24.9216 21.8741C24.6738 21.4776 24.4172 21.1171 24.1595 20.805C24.227 20.7318 24.2961 20.6606 24.3668 20.5913C25.0325 19.9401 25.6546 19.6831 25.9381 19.8668ZM24.7507 23.8101C24.7507 23.3104 24.3902 22.9052 23.9455 22.9052C23.5009 22.9052 23.1404 23.3104 23.1404 23.8101C23.1404 24.3099 23.5009 24.7151 23.9455 24.7151C24.3902 24.7151 24.7507 24.3099 24.7507 23.8101Z" fill="#00D8FF"/>
</g>
</g>
<path d="M20.3619 15.6885C18.2706 16.603 16.5932 18.288 15.6885 20.3846" stroke="#F2EDFC" stroke-width="0.819672" stroke-linecap="round"/>
<path d="M20.4426 31.2623C20.4426 29.9042 21.5436 28.8033 22.9016 28.8033H34.541C35.8991 28.8033 37 29.9042 37 31.2623V34.623C37 35.981 35.8991 37.082 34.541 37.082H22.9016C21.5436 37.082 20.4426 35.981 20.4426 34.623V31.2623Z" fill="#F2EDFC"/>
<path d="M26.541 34.4426V31.5369H25.9754V33.459L24.7664 31.5369H24.0615V34.4426H24.627V32.3812L25.9467 34.4426H26.541ZM29.043 34.4426V33.9098H27.7889V33.2377H28.9241V32.7336H27.7889V32.0697H29.043V31.5369H27.2233V34.4426H29.043ZM32.3385 33.5451L31.6909 31.5369H31.1049L30.4614 33.5369L29.9286 31.5369H29.3303L30.1376 34.4426H30.7278L31.3917 32.373L32.0557 34.4426H32.6376L33.4409 31.5369H32.8631L32.3385 33.5451Z" fill="#707279"/>
<circle cx="56.8852" cy="23.8852" r="11.4754" fill="white" stroke="#F2EDFC" stroke-width="0.819672"/>
<g clip-path="url(#clip2_2_616)">
<g clip-path="url(#clip3_2_616)">
<path d="M60.6758 21.3269L57.4667 19.4635C57.2643 19.3482 57.0008 19.3482 56.7968 19.4635L53.5534 21.3269C53.3445 21.447 53.1967 21.6729 53.1967 21.9144V25.6362C53.1967 25.8778 53.3484 26.1037 53.5572 26.2245L54.4142 26.7112C54.8237 26.9129 54.9685 26.9129 55.1549 26.9129C55.7613 26.9129 56.1077 26.5462 56.1077 25.9066V22.2322C56.1077 22.1803 56.0807 22.1031 56.0298 22.1031H55.6206C55.5687 22.1031 55.4527 22.1803 55.4527 22.2321V25.9065C55.4527 26.1901 55.1963 26.4722 54.717 26.2326L53.8315 25.7222C53.8007 25.7055 53.7789 25.6718 53.7789 25.6362V21.9144C53.7789 21.8793 53.8193 21.8441 53.8504 21.8261L57.0833 19.9659C57.1135 19.9488 57.1579 19.9488 57.188 19.9659L60.3815 21.8257C60.4121 21.8441 60.4013 21.8782 60.4013 21.9144V25.6362C60.4013 25.6718 60.4147 25.7063 60.3845 25.7234L57.1761 27.5847C57.1486 27.6012 57.1145 27.6012 57.0843 27.5847L56.2615 27.0936C56.2367 27.0791 56.2072 27.074 56.1834 27.0873C55.9544 27.2171 55.9122 27.2343 55.6975 27.3088C55.6446 27.3272 55.5667 27.3591 55.7273 27.4491L56.8042 28.0862C56.907 28.1456 57.0237 28.1769 57.1424 28.1769C57.2619 28.1769 57.3789 28.1459 57.4821 28.0862L60.6758 26.2245C60.8846 26.1028 60.9836 25.8778 60.9836 25.6362V21.9144C60.9836 21.6729 60.8846 21.4476 60.6758 21.3269ZM58.1388 25.0465C57.2855 25.0465 57.0975 24.8111 57.0349 24.3867C57.0276 24.341 56.9888 24.2863 56.9423 24.2863H56.5252C56.4736 24.2863 56.4321 24.3489 56.4321 24.4003C56.4321 24.9436 56.7275 25.602 58.1389 25.602C59.1606 25.602 59.7464 25.205 59.7464 24.5024C59.7464 23.8058 59.2757 23.623 58.2849 23.4919C57.2834 23.3595 57.1816 23.2926 57.1816 23.058C57.1816 22.8646 57.2678 22.6066 58.0094 22.6066C58.672 22.6066 58.9162 22.7488 59.0167 23.1954C59.0253 23.2374 59.0637 23.2675 59.107 23.2675H59.5257C59.5515 23.2675 59.5761 23.2571 59.5941 23.2387C59.6116 23.2189 59.6208 23.1941 59.6185 23.1674C59.5537 22.3984 59.0427 22.0399 58.0093 22.0399C57.0901 22.0399 56.5417 22.4281 56.5417 23.0788C56.5417 23.7846 57.0873 23.9796 57.9697 24.0669C59.0253 24.1703 59.1074 24.3246 59.1074 24.5323C59.1074 24.8929 58.8179 25.0465 58.1388 25.0465Z" fill="#83CD29"/>
</g>
</g>
<path d="M53.3619 15.6885C51.2706 16.603 49.5932 18.288 48.6885 20.3846" stroke="#F2EDFC" stroke-width="0.819672" stroke-linecap="round"/>
<path d="M53.4426 31.2623C53.4426 29.9042 54.5436 28.8033 55.9016 28.8033H67.541C68.8991 28.8033 70 29.9042 70 31.2623V34.623C70 35.981 68.8991 37.082 67.541 37.082H55.9016C54.5436 37.082 53.4426 35.981 53.4426 34.623V31.2623Z" fill="#F2EDFC"/>
<path d="M59.541 34.4426V31.5369H58.9754V33.459L57.7664 31.5369H57.0615V34.4426H57.6271V32.3812L58.9467 34.4426H59.541ZM62.043 34.4426V33.9098H60.7889V33.2377H61.9241V32.7336H60.7889V32.0697H62.043V31.5369H60.2233V34.4426H62.043ZM65.3385 33.5451L64.6909 31.5369H64.1049L63.4614 33.5369L62.9286 31.5369H62.3303L63.1376 34.4426H63.7278L64.3917 32.373L65.0557 34.4426H65.6377L66.4409 31.5369H65.8631L65.3385 33.5451Z" fill="#707279"/>
<circle cx="89.8852" cy="23.8852" r="11.4754" fill="white" stroke="#F2EDFC" stroke-width="0.819672"/>
<g clip-path="url(#clip4_2_616)">
<g clip-path="url(#clip5_2_616)">
<path d="M94.8033 23.7075L92.7071 25.7295L90.5571 23.7075L91.1484 23.1372L92.2771 24.2259V21.4262H93.0833V24.2778L94.212 23.189L94.8033 23.7075ZM85.7735 23.4482L87.2247 24.8481L88.7296 23.4482V25.7295H89.5359V21.5299L87.2247 23.7593L84.9672 21.5299V25.7295H85.7735V23.4482Z" fill="#FFD02B"/>
</g>
</g>
<path d="M86.3619 15.6885C84.2706 16.603 82.5932 18.288 81.6885 20.3846" stroke="#F2EDFC" stroke-width="0.819672" stroke-linecap="round"/>
<path d="M86.4426 31.2623C86.4426 29.9042 87.5436 28.8033 88.9016 28.8033H100.541C101.899 28.8033 103 29.9042 103 31.2623V34.623C103 35.981 101.899 37.082 100.541 37.082H88.9016C87.5436 37.082 86.4426 35.981 86.4426 34.623V31.2623Z" fill="#F2EDFC"/>
<path d="M92.541 34.4426V31.5369H91.9754V33.459L90.7664 31.5369H90.0615V34.4426H90.6271V32.3812L91.9467 34.4426H92.541ZM95.043 34.4426V33.9098H93.7889V33.2377H94.9241V32.7336H93.7889V32.0697H95.043V31.5369H93.2233V34.4426H95.043ZM98.3385 33.5451L97.6909 31.5369H97.1049L96.4614 33.5369L95.9286 31.5369H95.3303L96.1376 34.4426H96.7278L97.3917 32.373L98.0557 34.4426H98.6377L99.4409 31.5369H98.8631L98.3385 33.5451Z" fill="#707279"/>
<circle cx="122.885" cy="23.8852" r="11.4754" fill="white" stroke="#F2EDFC" stroke-width="0.819672"/>
<g clip-path="url(#clip6_2_616)">
<g clip-path="url(#clip7_2_616)">
<path d="M118.377 20.9337L122.825 19.377L127.393 20.9061L126.654 26.6866L122.825 28.7691L119.057 26.7142L118.377 20.9337Z" fill="#E23237"/>
<path d="M127.393 20.9061L122.885 19.377V28.7691L126.663 26.69L127.393 20.9061Z" fill="#B52E31"/>
<path d="M122.814 20.5039L119.88 26.4977L120.976 26.4805L121.565 25.1284H124.198L124.843 26.4977L125.891 26.5148L122.814 20.5039ZM122.822 22.4242L123.814 24.3274H121.949L122.822 22.4242Z" fill="white"/>
</g>
</g>
<path d="M119.362 15.6885C117.271 16.603 115.593 18.288 114.689 20.3846" stroke="#F2EDFC" stroke-width="0.819672" stroke-linecap="round"/>
<path d="M119.443 31.2623C119.443 29.9042 120.544 28.8033 121.902 28.8033H133.541C134.899 28.8033 136 29.9042 136 31.2623V34.623C136 35.981 134.899 37.082 133.541 37.082H121.902C120.544 37.082 119.443 35.981 119.443 34.623V31.2623Z" fill="#F2EDFC"/>
<path d="M125.541 34.4426V31.5369H124.975V33.459L123.766 31.5369H123.061V34.4426H123.627V32.3812L124.947 34.4426H125.541ZM128.043 34.4426V33.9098H126.789V33.2377H127.924V32.7336H126.789V32.0697H128.043V31.5369H126.223V34.4426H128.043ZM131.338 33.5451L130.691 31.5369H130.105L129.461 33.5369L128.929 31.5369H128.33L129.138 34.4426H129.728L130.392 32.373L131.056 34.4426H131.638L132.441 31.5369H131.863L131.338 33.5451Z" fill="#707279"/>
<path d="M8 1H140V-1H8V1ZM147 8V41H149V8H147ZM140 48H8V50H140V48ZM1 41V8H-1V41H1ZM8 48C4.13401 48 1 44.866 1 41H-1C-1 45.9706 3.02944 50 8 50V48ZM147 41C147 44.866 143.866 48 140 48V50C144.971 50 149 45.9706 149 41H147ZM140 1C143.866 1 147 4.13401 147 8H149C149 3.02944 144.971 -1 140 -1V1ZM8 -1C3.02944 -1 -1 3.02944 -1 8H1C1 4.13401 4.13401 1 8 1V-1Z" fill="#E5DFFF"/>
<defs>
<clipPath id="clip0_2_616">
<rect width="9.83607" height="9.83607" fill="white" transform="translate(18.9672 18.9672)"/>
</clipPath>
<clipPath id="clip1_2_616">
<rect width="9.83607" height="9.83607" fill="white" transform="translate(18.9672 18.9672)"/>
</clipPath>
<clipPath id="clip2_2_616">
<rect width="9.83607" height="9.83607" fill="white" transform="translate(51.9672 18.9672)"/>
</clipPath>
<clipPath id="clip3_2_616">
<rect width="9.83607" height="9.83607" fill="white" transform="translate(51.9672 18.9672)"/>
</clipPath>
<clipPath id="clip4_2_616">
<rect width="9.83607" height="9.83607" fill="white" transform="translate(84.9672 18.9672)"/>
</clipPath>
<clipPath id="clip5_2_616">
<rect width="9.83607" height="9.83607" fill="white" transform="translate(84.9672 18.9672)"/>
</clipPath>
<clipPath id="clip6_2_616">
<rect width="9.83607" height="9.83607" fill="white" transform="translate(117.967 18.9672)"/>
</clipPath>
<clipPath id="clip7_2_616">
<rect width="9.83607" height="9.83607" fill="white" transform="translate(117.967 18.9672)"/>
</clipPath>
</defs>
</svg>
